<?xml version="1.0" encoding="utf-8"?>
<!-- Generator: Adobe Illustrator 27.8.1, SVG Export Plug-In . SVG Version: 6.00 Build 0)  -->
<svg version="1.1" id="Layer_1" xmlns="http://www.w3.org/2000/svg" xmlns:xlink="http://www.w3.org/1999/xlink" x="0px" y="0px"
	 viewBox="0 0 322.8 267.2" style="enable-background:new 0 0 322.8 267.2;" xml:space="preserve">
<style type="text/css">
	.st0{fill:#B78053;stroke:#B78053;stroke-width:0.25;stroke-miterlimit:10;}
</style>
<g>
	<g>
		<path class="st0" d="M106,224.7c-1.5-0.8-2.8-1.9-4.4-3.1c-4.3-3.5-9.7-8-22.4-9c-13.6-1.1-24.8,4.5-32.3,8.2
			c-3.2,1.6-5.9,2.9-7.2,2.9c0,0,0,0,0,0H7.4c-0.8,0-1.5,0.7-1.5,1.5c0,0.8,0.7,1.5,1.5,1.5h32c2.5,1.2,17.1,7.9,34.9,8.5
			c-6.2,11-22,21.7-44.6,21.7c-9.7,0-19.7-2.6-20.3-8.3c-0.1-1.2,0.2-2.1,1-2.8c0.9-0.7,2.2-0.9,3.3-0.5c0.6,0.2,1.1,0.7,1.3,1.3
			c0.2,0.6,0,1.2-0.5,2c-0.5,0.7-0.3,1.6,0.4,2.1c0.7,0.5,1.6,0.3,2.1-0.4c1.2-1.9,1.1-3.5,0.8-4.5c-0.5-1.4-1.6-2.6-3-3.1
			c-2-0.8-4.4-0.5-6.2,0.9c-1.6,1.3-2.4,3.2-2.2,5.5c0.9,8.1,12.6,10.9,23.3,10.9c24.8,0,41.9-12.3,48-24.7c1.2,0,2.3-0.1,3.5-0.1
			v13.2c0,0.8,0.7,1.5,1.5,1.5c0.8,0,1.5-0.7,1.5-1.5v-13.5c7.2-0.8,14.7-2.9,21.9-7c0.6-0.3,0.9-0.9,0.9-1.6
			C106.9,225.6,106.6,225,106,224.7z M77.9,215.8c3.3,0,6,2.7,6,6c0,3.3-2.7,6-6,6c-3.3,0-6-2.7-6-6C72,218.5,74.6,215.8,77.9,215.8
			z M44.1,225.5c1.2-0.5,2.6-1.2,4.2-2c5.7-2.8,13.6-6.8,23.1-7.8c-1.5,1.6-2.5,3.8-2.5,6.1c0,4.9,4,9,9,9c4.9,0,9-4,9-9
			c0-2-0.7-3.9-1.8-5.4c7.5,1.6,11.4,4.8,14.6,7.4c1,0.8,2,1.6,3,2.3C79.9,237.8,53.6,229.3,44.1,225.5z"/>
		<path class="st0" d="M7.4,213.9L7.4,213.9c0.9,0,22.6-0.3,32.5-3c1.6-0.5,3.8-1.3,6.4-2.3c6.9-2.8,17.4-6.9,27.7-6.9
			c19.4,0,30.5,8.8,30.6,8.9c0.6,0.5,1.6,0.4,2.1-0.2c0.5-0.6,0.4-1.6-0.2-2.1c-0.5-0.4-12-9.6-32.5-9.6c-10.9,0-21.7,4.3-28.8,7.1
			c-2.5,1-4.6,1.8-6.1,2.2c-9.4,2.6-31.4,2.9-31.7,2.9c-0.8,0-1.5,0.7-1.5,1.5C5.9,213.2,6.6,213.9,7.4,213.9z"/>
	</g>
	<path class="st0" d="M221.4,191.9h-74.5c-0.6,0-1.2-0.2-1.6-0.7l-16.8-18.2l-16.8,18.2c-0.4,0.4-1,0.7-1.6,0.7H84.1
		c-0.7,0-1.4-0.5-1.7-1.1c-0.3-0.7-0.2-1.5,0.4-2.1l37-39.7c0.4-0.5,1.1-0.7,1.7-0.7c0,0,0,0,0,0c0.7,0,1.3,0.3,1.7,0.8l29.4,32.2
		l-1.8,1.7l-29.3-32.1l-36,38.6h24.4l16.9-18.2c0.9-0.9,2.6-0.9,3.4,0l16.9,18.2h73l-53.4-57.5l-28.1,30.6l-1.8-1.7l28.2-30.7
		c0.4-0.5,1.1-0.8,1.7-0.8l0,0c0.6,0,1.3,0.3,1.7,0.7l54.4,58.6c0.5,0.6,0.7,1.4,0.4,2.1C222.8,191.5,222.2,191.9,221.4,191.9z"/>
	<path class="st0" d="M181.1,69.7l-4.8-10.5l0.4-3.4L160,5.8c-0.4-1.2-1.6-2-2.9-1.8c-3.9,0.5-14.3,1.9-26.2,5.1
		c-13.8,3.7-24.3,9.2-28.2,11.4c-0.6,0.4-1.1,0.9-1.2,1.6c-0.1,0.7,0,1.4,0.4,2l37.3,50.6c0.5,3.3-1.9,9.8-15.4,22
		c-9.8,8.9-10.9,19-11,19.4l-0.1,1.2l42.7,5.1l-3.4-15.3l0.2-1.1l11.1-19l9.1,1.1c1.1,0.1,2.2-0.2,3.1-0.9c0.9-0.7,1.4-1.7,1.5-2.9
		l1.1-10.7l2.4-2.1C181.2,71.1,181.4,70.4,181.1,69.7z M148.7,50.4c1.2,3,0,6.4-2.8,7.9l-11.1,6.2l-15.6-21.2
		c14.3-7.7,29.6-13.1,45.5-16l4.4,13.3l-21,8.2L148.7,50.4z M161.4,25.6l-1.4-4.3c0.8-0.2,1.6-0.3,2.5-0.5l1.4,4.3
		C163.1,25.3,162.3,25.4,161.4,25.6z M157.7,21.8l1.4,4.2c-1.6,0.4-3.2,0.7-4.7,1.1l-1.4-4.2C154.5,22.5,156.1,22.2,157.7,21.8z
		 M150.7,23.5l1.4,4.2c-0.5,0.1-1,0.3-1.5,0.4l-1.5-4.2C149.6,23.8,150.1,23.7,150.7,23.5z M146.8,24.6l1.5,4.2
		c-1.8,0.5-3.6,1.1-5.4,1.7l-1.5-4.2C143.2,25.7,145,25.2,146.8,24.6z M139.1,27.1l1.5,4.2c-0.5,0.2-1.1,0.4-1.6,0.6l-1.8-4.1
		C137.8,27.6,138.5,27.3,139.1,27.1z M135,28.6l1.8,4.1c-1.6,0.6-3.2,1.2-4.7,1.9l-1.8-4C131.8,29.9,133.4,29.2,135,28.6z M128,31.5
		l1.8,4c-0.5,0.2-1,0.4-1.4,0.6l-2.1-3.9C126.8,32,127.4,31.7,128,31.5z M124.1,33.3l2.1,3.9c-1.4,0.7-2.9,1.4-4.3,2.1l-2.2-3.8
		C121.1,34.7,122.6,34,124.1,33.3z M117.5,36.5l2.2,3.8c-0.7,0.4-1.3,0.7-2,1.1l-2.6-3.6C115.9,37.4,116.7,37,117.5,36.5z M103,23.3
		l1-0.8c3.8-2.2,14.1-7.6,27.6-11.2c11.7-3.1,22-4.6,25.8-5c0.1,0,0.3,0.1,0.3,0.2l4,12c-16.8,3.2-33,9-48,17.3l-9.8-13.3L103,23.3z
		 M176,72.6l-1.2,11.7c0,0.5-0.3,0.9-0.7,1.2c-0.4,0.3-0.9,0.5-1.3,0.4l-10.7-1.3L150,105.3l-0.3,2l2.8,12.4l-36.9-4.4
		c0.6-2.8,2.8-10.2,10-16.7c11.8-10.6,17.2-18.9,16.1-24.5l0-0.3l-5.4-7.3l10.9-6c3.6-2,5.3-6.3,4.1-10.2l18.7-7.3l4.4,13.1
		l-0.4,3.6l4.9,10.5L176,72.6z"/>
	<path class="st0" d="M322.5,235.6l-2-4c-1.2-2.4-4.2-4-7.6-4h-27.1l-2.5-7.4c-1.1-3.2-3.2-6.2-6.2-8.7l-5.6-4.8
		c-1.3-1.1-2-2.5-2-3.9l0.1-4.7h4.5c1.4,0,2.8-0.5,3.7-1.3c0.9-0.9,1.2-2,0.9-3l-5-15.7c-0.9-2.8-4.3-4.8-8.2-4.8h-17.4
		c-4.8,0-9.1,1.8-11.6,4.9l-8.9,10.4c-1.5,1.9-2.3,3.5-1.8,6.4l2.4,11h-65.3c-6.5,0-12.5,3.1-14.8,7.7l-9.5,18.8
		c-0.8,1.6-0.5,3.4,0.8,4.8c1.3,1.4,3.4,2.2,5.6,2.2h38.8l0,0l0,0h6.6l0,0l0,0h53.7l0,0l0,0h74.9c1.2,0,2.3-0.4,3-1.2
		C322.8,237.4,323,236.4,322.5,235.6z M319.5,236.7c0,0.1-0.2,0.1-0.4,0.1h-73.6l-2.5-8.5c-0.2-0.6-1.1-1.1-1.9-0.9
		c-0.9,0.1-1.4,0.8-1.2,1.4l2.4,8h-50.7l-2.7-5.3c-1.2-2.4-4.2-4-7.6-4h-29.1c-0.9,0-1.6,0.5-1.6,1.2c0,0.7,0.7,1.2,1.6,1.2h29.1
		c2.1,0,3.9,1,4.7,2.5l2.3,4.4h-3.1l-1.9-4.2c-0.3-0.6-1.2-1-2-0.7c-0.8,0.2-1.3,0.9-1,1.5l1.6,3.4h-36.6c-1.2,0-2.3-0.4-3-1.2
		c-0.7-0.8-0.9-1.7-0.5-2.5l9.5-18.8c1.9-3.7,6.6-6.2,11.8-6.2h88.7c0.9,0,1.6-0.5,1.6-1.2v-27.2c0-0.7-0.7-1.2-1.6-1.2
		c-0.9,0-1.6,0.5-1.6,1.2v26h-18.6l-0.7-3h3.4c0.9,0,1.6-0.5,1.6-1.2c0-0.7-0.7-1.2-1.6-1.2h-3.9l-0.5-2.2h8.5
		c0.9,0,1.6-0.5,1.6-1.2c0-0.7-0.7-1.2-1.6-1.2h-9l-0.3-1.3c-0.4-2.2,0.1-3.2,1.4-4.7l8.9-10.4c1.9-2.3,5.3-3.7,8.9-3.7h17.4
		c2.4,0,4.5,1.2,5.1,3l5,15.7c0.1,0.3,0,0.7-0.3,1c-0.3,0.3-0.7,0.4-1.2,0.4H269h-0.9h-5.2c-0.9,0-1.6,0.5-1.6,1.2
		c0,0.7,0.7,1.2,1.6,1.2h3.6l-0.1,4.7c0,2,1,4,2.8,5.5l5.6,4.8c2.6,2.2,4.5,4.9,5.5,7.7l2.8,8.3c0.2,0.5,0.8,0.9,1.5,0.9H313
		c2.1,0,4,1,4.7,2.5l2,4C319.6,236.6,319.6,236.7,319.5,236.7z"/>
	<g>
		<path class="st0" d="M84.8,113.2c5.2-5.5,8.6-11,9.5-13.7C96.4,93,92.7,86,86,83.8S72.1,85,70,91.5c-0.9,2.8-1.5,9.2-0.6,16.7
			c0.8,6.9,2.5,11.1,3.7,12.6l0.5,0.6l0.7-0.2C76.2,120.7,80.1,118.3,84.8,113.2z M92.2,98.8c-0.8,2.5-4,7.6-9,12.9
			c-4.5,4.7-7.5,6.4-8.7,7c-1-1.7-2.2-5.4-2.8-10.8c-0.9-7.2-0.4-13.2,0.5-15.7c1.8-5.3,7.7-8.1,13.2-6.3
			C90.8,87.7,93.9,93.5,92.2,98.8z M103.7,128.4L82,124.1c7.7-5.8,16.6-17.2,18.8-24c3.3-10.1-2.2-20.9-12.2-24.2S67.7,78,64.4,88.1
			c-2.1,6.3-2.2,20.6,0.8,30.5l-21-9.8L40,121.7l27.4,6.2l-20.6,51.1l14.2,4.7l13.8-53.3l24.7,10.9L103.7,128.4z M49.7,177.7
			l20.6-51.2l0.1-0.2l-27.6-6.3l2.7-8.2l23.6,11l-1.1-3c-3.3-9-3.6-24.7-1.5-31.2C69.4,79.9,79,75.1,87.9,78
			c8.9,2.9,13.7,12.5,10.8,21.4c-2.1,6.4-11.6,18.8-19.7,24.1l-2.7,1.8l24.5,4.8l-2.7,8.1l-24.8-10.9l-13.9,53.6L49.7,177.7z"/>
	</g>
	<g>
		<path class="st0" d="M220.4,99.5c-0.9-7.5-3-13.6-4.6-16c-3.6-5.7-11.5-7.4-17.4-3.6c-6,3.8-7.8,11.5-4.2,17.3
			c1.6,2.5,6.2,7,12.6,11c5.8,3.7,10.2,5.1,12.1,5.1h0.7l0.3-0.7C220.7,110.9,221.3,106.4,220.4,99.5z M214,84.7
			c1.4,2.2,3.4,7.9,4.3,15.1c0.8,6.5,0.2,9.9-0.1,11.2c-2-0.4-5.6-1.8-10.1-4.6c-6.1-3.9-10.4-8.1-11.9-10.3
			c-3-4.7-1.4-11.1,3.5-14.2C204.5,78.7,210.9,80,214,84.7z M244.1,94.5l-17.1,14.1c0.4-9.6-2.8-23.7-6.7-29.8
			c-5.7-8.9-17.5-11.6-26.5-5.9c-8.9,5.7-11.6,17.5-5.9,26.5c3.6,5.6,14.6,14.7,24.1,18.7l-20.9,10l7.3,11.5l22.2-17.2l26.5,48.3
			l12.6-8l-32.5-44.5l24.1-12.2L244.1,94.5z M248.1,167.5l-26.5-48.4l-0.1-0.2l-22.3,17.3l-4.6-7.2l23.5-11.2l-3-1.1
			c-9.1-3.2-21.4-12.9-25-18.6c-5-7.9-2.7-18.4,5.2-23.4s18.4-2.7,23.4,5.2c3.6,5.7,7.2,20.9,6.2,30.6l-0.3,3.2l19.2-15.9l4.6,7.2
			L224,117.3l32.6,44.7L248.1,167.5z"/>
	</g>
</g>
</svg>
