<?xml version="1.0" encoding="utf-8"?>
<!-- Generator: Adobe Illustrator 27.8.1, SVG Export Plug-In . SVG Version: 6.00 Build 0)  -->
<svg version="1.1" id="Layer_1" xmlns="http://www.w3.org/2000/svg" xmlns:xlink="http://www.w3.org/1999/xlink" x="0px" y="0px"
	 viewBox="0 0 369.2 232.6" style="enable-background:new 0 0 369.2 232.6;" xml:space="preserve">
<style type="text/css">
	.st0{fill:#B78053;stroke:#B78053;stroke-width:0.25;stroke-miterlimit:10;}
	.st1{fill:#EC5238;}
	.st2{fill:#223972;}
</style>
<g>
	<g>
		<path class="st0" d="M174.3,195.9h-3.7c-0.5,0-0.9,0.4-0.9,0.9s0.4,0.9,0.9,0.9h5.5L174.3,195.9z M177,209.5
			c-0.3-0.9-1-1.6-1.9-1.9c-0.1,0-0.2-0.1-0.3-0.1l2.2,2.4C177.1,209.8,177,209.6,177,209.5z M216.5,197.7c-0.6,0.5-1.4,0.8-2.2,0.8
			c-2,0-3.7-1.7-3.7-3.7c0-0.9,0.3-1.7,0.8-2.3c0.7-0.9,1.7-1.4,2.9-1.4c2,0,3.7,1.7,3.7,3.7C218,195.9,217.4,197,216.5,197.7z
			 M184.4,216.4c-0.4,0-0.8,0-1.2,0l1.7,1.9c3.3,0,6.4-0.4,9.3-1.1l-1.5-1.6C190.1,216.1,187.3,216.4,184.4,216.4z M218.1,210v-7.3
			c1-0.1,1.9-0.3,2.9-0.5c3.5-0.7,7.1-1.9,10.6-3.9c0.3-0.2,0.6-0.6,0.6-1c0-0.4-0.2-0.8-0.6-0.9c-0.9-0.5-1.7-1.2-2.7-1.9
			c-2.7-2.2-6.1-4.9-13.9-5.6c-2.3-0.2-4.6-0.1-6.7,0.3c-3,0.5-5.7,1.4-8.1,2.4l0.1,0.1l1.3,1.4c2.4-1,5.2-1.8,8.2-2.1
			c0.1,0,0.2,0,0.3,0c-0.1,0.1-0.1,0.1-0.2,0.2c-0.8,1-1.3,2.2-1.3,3.6c0,3.1,2.5,5.5,5.5,5.5c1.3,0,2.6-0.5,3.5-1.3
			c1.2-1,2-2.5,2-4.3c0-1.3-0.4-2.4-1.1-3.3c4.7,1,7.1,3,9.1,4.6c0.6,0.5,1.2,1,1.9,1.4c-3.3,1.7-6.7,2.7-10.2,3.2
			c-3.5,0.5-6.9,0.5-10.2,0.2l2,2.1c0.2,0,0.5,0,0.7,0c-0.1,0.1-0.2,0.3-0.3,0.4l1.3,1.4c0.4-0.6,0.7-1.2,1-1.8c0.7,0,1.5,0,2.2-0.1
			v5.2"/>
		<path class="st0" d="M232,187.6c-0.3,0.4-0.9,0.5-1.3,0.1c-0.1-0.1-6.9-5.5-19-5.5c-2.9,0-5.9,0.6-8.7,1.3
			c-2.9,0.8-5.6,1.8-7.8,2.7l-1.3-1.5c2.1-0.8,4.8-1.9,7.7-2.7c3.1-0.9,6.6-1.7,10.1-1.7c12.7,0,19.8,5.7,20.1,5.9
			C232.3,186.6,232.4,187.2,232,187.6z"/>
	</g>
	<path class="st0" d="M303.2,176.2H257c-0.4,0-0.7-0.2-1-0.4l-10.4-11.3l-10.4,11.3c-0.3,0.3-0.6,0.4-1,0.4h-16
		c-0.5,0-0.9-0.3-1.1-0.7c-0.2-0.4-0.1-0.9,0.2-1.3l22.9-24.6c0.3-0.3,0.7-0.5,1.1-0.5l0,0c0.4,0,0.8,0.2,1.1,0.5l18.2,20l-1.1,1
		l-18.2-19.9l-22.3,23.9H234l10.5-11.3c0.5-0.6,1.6-0.6,2.1,0l10.5,11.3h45.3L269.2,139l-17.4,19l-1.1-1l17.5-19
		c0.3-0.3,0.7-0.5,1.1-0.5l0,0c0.4,0,0.8,0.2,1.1,0.5l33.7,36.3c0.3,0.3,0.4,0.8,0.2,1.3C304,175.9,303.6,176.2,303.2,176.2z"/>
	<path class="st0" d="M278.2,100.5l-3-6.5l0.3-2.1l-10.3-31.1c-0.3-0.7-1-1.2-1.8-1.1c-2.4,0.3-8.9,1.2-16.2,3.1
		c-8.5,2.3-15,5.7-17.5,7.1c-0.4,0.2-0.6,0.6-0.7,1c-0.1,0.4,0,0.9,0.3,1.2l23.1,31.4c0.3,2.1-1.2,6.1-9.6,13.6
		c-6.1,5.5-6.8,11.8-6.8,12l-0.1,0.7l26.5,3.2l-2.1-9.5l0.1-0.7l6.9-11.8l5.7,0.7c0.7,0.1,1.4-0.1,1.9-0.6c0.5-0.4,0.9-1.1,1-1.8
		l0.7-6.7l1.5-1.3C278.3,101.4,278.4,100.9,278.2,100.5z M267.5,72.8c-0.5,0.1-1,0.2-1.5,0.3l-0.9-2.6c0.5-0.1,1-0.2,1.5-0.3
		L267.5,72.8z M230.4,71.3l-0.6,0.4L230.4,71.3c2.4-1.4,8.8-4.8,17.1-7c7.3-1.9,13.6-2.8,16-3.1c0.1,0,0.2,0,0.2,0.1l2.5,7.5
		c-10.4,2-20.4,5.6-29.8,10.8L230.4,71.3z M264.6,73.4c-1,0.2-1.9,0.4-2.9,0.7l-0.9-2.6c1-0.2,1.9-0.5,2.9-0.7L264.6,73.4z
		 M260.2,74.5c-0.3,0.1-0.6,0.2-0.9,0.3l-0.9-2.6c0.3-0.1,0.7-0.2,1-0.3L260.2,74.5z M257.8,75.1c-1.1,0.3-2.2,0.7-3.3,1l-0.9-2.6
		c1.1-0.4,2.2-0.7,3.4-1.1L257.8,75.1z M253.1,76.7c-0.3,0.1-0.7,0.2-1,0.3l-1.1-2.5c0.4-0.1,0.8-0.3,1.2-0.4L253.1,76.7z
		 M250.7,77.5c-1,0.4-2,0.8-2.9,1.2l-1.1-2.5c1-0.4,2-0.8,3-1.2L250.7,77.5z M246.4,79.3c-0.3,0.1-0.6,0.3-0.9,0.4l-1.3-2.4
		c0.3-0.2,0.7-0.3,1.1-0.5L246.4,79.3z M244.2,80.3c-0.9,0.4-1.8,0.8-2.7,1.3l-1.4-2.4c0.9-0.5,1.8-0.9,2.7-1.3L244.2,80.3z
		 M237.3,80.7c0.5-0.3,1-0.5,1.5-0.8l1.4,2.4c-0.4,0.2-0.8,0.5-1.2,0.7L237.3,80.7z M239.8,84.2c8.9-4.8,18.4-8.1,28.2-9.9l2.7,8.2
		l-13,5.1l0.4,0.9c0.7,1.8,0,3.9-1.8,4.9l-6.9,3.8L239.8,84.2z M275.1,102.3l-0.7,7.2c0,0.3-0.2,0.6-0.4,0.8
		c-0.2,0.2-0.5,0.3-0.8,0.2l-6.6-0.8l-7.5,12.8l-0.2,1.2l1.7,7.7l-22.9-2.8c0.4-1.7,1.7-6.3,6.2-10.4c7.3-6.6,10.7-11.7,10-15.2
		l0-0.2l-3.3-4.5l6.7-3.7c2.3-1.2,3.3-3.9,2.6-6.3l11.6-4.5l2.7,8.1l-0.3,2.2l3,6.5L275.1,102.3z"/>
	<path class="st0" d="M365.9,203.3l-1.2-2.5c-0.7-1.5-2.6-2.5-4.7-2.5h-16.8l-1.5-4.6c-0.7-2-2-3.9-3.8-5.4l-3.5-2.9
		c-0.8-0.7-1.2-1.5-1.2-2.4l0-2.9h2.8c0.9,0,1.7-0.3,2.3-0.8c0.5-0.5,0.7-1.2,0.5-1.9l-3.1-9.8c-0.6-1.7-2.7-3-5.1-3h-10.8
		c-2.9,0-5.6,1.1-7.2,3l-5.5,6.4c-0.9,1.1-1.4,2.1-1.1,3.9l1.5,6.8h-40.5c-4,0-7.7,1.9-9.2,4.8l-5.9,11.6c-0.5,1-0.3,2.1,0.5,2.9
		c0.8,0.9,2.1,1.4,3.5,1.4h107.9c0.7,0,1.4-0.3,1.8-0.7C366,204.4,366.1,203.8,365.9,203.3z M364,204c0,0-0.1,0.1-0.2,0.1h-45.6
		l-1.6-5.3c-0.1-0.4-0.6-0.7-1.2-0.6c-0.5,0.1-0.9,0.5-0.7,0.9l1.5,5h-31.4l-1.7-3.3c-0.7-1.5-2.6-2.5-4.7-2.5h-18
		c-0.5,0-1,0.3-1,0.7c0,0.4,0.4,0.7,1,0.7h18c1.3,0,2.4,0.6,2.9,1.5l1.4,2.7h-1.9l-1.2-2.6c-0.2-0.4-0.7-0.6-1.3-0.5
		c-0.5,0.1-0.8,0.5-0.6,0.9l1,2.1h-22.7c-0.8,0-1.4-0.3-1.9-0.7c-0.4-0.5-0.5-1-0.3-1.6l5.9-11.6c1.1-2.3,4.1-3.8,7.3-3.8h55
		c0.5,0,1-0.3,1-0.7v-16.8c0-0.4-0.4-0.7-1-0.7c-0.5,0-1,0.3-1,0.7v16.1h-11.5l-0.4-1.9h2.1c0.5,0,1-0.3,1-0.7c0-0.4-0.5-0.7-1-0.7
		h-2.4l-0.3-1.4h5.3c0.5,0,1-0.3,1-0.7c0-0.4-0.4-0.7-1-0.7H308l-0.2-0.8c-0.2-1.3,0.1-2,0.9-2.9l5.5-6.4c1.2-1.4,3.2-2.3,5.5-2.3
		h10.8c1.5,0,2.8,0.8,3.1,1.9l3.1,9.7c0.1,0.2,0,0.4-0.2,0.6c-0.2,0.2-0.4,0.3-0.7,0.3h-7c-0.5,0-1,0.3-1,0.7c0,0.4,0.4,0.7,1,0.7
		h2.2l0,2.9c0,1.3,0.6,2.5,1.7,3.4l3.5,2.9c1.6,1.4,2.8,3,3.4,4.8l1.7,5.1c0.1,0.3,0.5,0.6,0.9,0.6h17.6c1.3,0,2.5,0.6,2.9,1.5
		l1.2,2.5C364.1,203.9,364,203.9,364,204z"/>
	<g>
		<path class="st0" d="M219.3,109.2c-4.1-1.4-8.6,0.8-9.9,4.8c-0.6,1.7-0.9,5.7-0.4,10.4c0.5,4.3,1.6,6.9,2.3,7.8l0.3,0.3l0.4-0.1
			c1.1-0.3,3.5-1.8,6.5-4.9c3.2-3.4,5.3-6.8,5.9-8.5C225.7,114.9,223.4,110.5,219.3,109.2z M223.1,118.5c-0.5,1.6-2.5,4.7-5.6,8
			c-2.8,2.9-4.6,4-5.4,4.3c-0.6-1.1-1.3-3.4-1.7-6.7c-0.5-4.5-0.2-8.2,0.3-9.8c1.1-3.3,4.7-5,8.2-3.9
			C222.3,111.6,224.2,115.2,223.1,118.5z M219.3,109.2c-4.1-1.4-8.6,0.8-9.9,4.8c-0.6,1.7-0.9,5.7-0.4,10.4c0.5,4.3,1.6,6.9,2.3,7.8
			l0.3,0.3l0.4-0.1c1.1-0.3,3.5-1.8,6.5-4.9c3.2-3.4,5.3-6.8,5.9-8.5C225.7,114.9,223.4,110.5,219.3,109.2z M223.1,118.5
			c-0.5,1.6-2.5,4.7-5.6,8c-2.8,2.9-4.6,4-5.4,4.3c-0.6-1.1-1.3-3.4-1.7-6.7c-0.5-4.5-0.2-8.2,0.3-9.8c1.1-3.3,4.7-5,8.2-3.9
			C222.3,111.6,224.2,115.2,223.1,118.5z M219.3,109.2c-4.1-1.4-8.6,0.8-9.9,4.8c-0.6,1.7-0.9,5.7-0.4,10.4c0.5,4.3,1.6,6.9,2.3,7.8
			l0.3,0.3l0.4-0.1c1.1-0.3,3.5-1.8,6.5-4.9c3.2-3.4,5.3-6.8,5.9-8.5C225.7,114.9,223.4,110.5,219.3,109.2z M223.1,118.5
			c-0.5,1.6-2.5,4.7-5.6,8c-2.8,2.9-4.6,4-5.4,4.3c-0.6-1.1-1.3-3.4-1.7-6.7c-0.5-4.5-0.2-8.2,0.3-9.8c1.1-3.3,4.7-5,8.2-3.9
			C222.3,111.6,224.2,115.2,223.1,118.5z M219.3,109.2c-4.1-1.4-8.6,0.8-9.9,4.8c-0.6,1.7-0.9,5.7-0.4,10.4c0.5,4.3,1.6,6.9,2.3,7.8
			l0.3,0.3l0.4-0.1c1.1-0.3,3.5-1.8,6.5-4.9c3.2-3.4,5.3-6.8,5.9-8.5C225.7,114.9,223.4,110.5,219.3,109.2z M223.1,118.5
			c-0.5,1.6-2.5,4.7-5.6,8c-2.8,2.9-4.6,4-5.4,4.3c-0.6-1.1-1.3-3.4-1.7-6.7c-0.5-4.5-0.2-8.2,0.3-9.8c1.1-3.3,4.7-5,8.2-3.9
			C222.3,111.6,224.2,115.2,223.1,118.5z M219.3,109.2c-4.1-1.4-8.6,0.8-9.9,4.8c-0.6,1.7-0.9,5.7-0.4,10.4c0.5,4.3,1.6,6.9,2.3,7.8
			l0.3,0.3l0.4-0.1c1.1-0.3,3.5-1.8,6.5-4.9c3.2-3.4,5.3-6.8,5.9-8.5C225.7,114.9,223.4,110.5,219.3,109.2z M223.1,118.5
			c-0.5,1.6-2.5,4.7-5.6,8c-2.8,2.9-4.6,4-5.4,4.3c-0.6-1.1-1.3-3.4-1.7-6.7c-0.5-4.5-0.2-8.2,0.3-9.8c1.1-3.3,4.7-5,8.2-3.9
			C222.3,111.6,224.2,115.2,223.1,118.5z M216.8,134.2c4.7-3.6,10.3-10.6,11.7-14.9c2-6.2-1.3-13-7.6-15c-6.2-2.1-13,1.3-15,7.6
			c-1.3,3.9-1.3,12.8,0.5,18.9l-13-6.1l-2.6,8l17,3.9L195,168.3l8.8,2.9l8.6-33.1l15.3,6.7l2.6-8L216.8,134.2z M226.8,142.9
			l-15.4-6.8l-8.6,33.2l-6-2l12.8-31.7l0.1-0.1l-17.1-3.9l1.7-5.1l14.6,6.8l-0.7-1.9c-2.1-5.6-2.2-15.3-0.9-19.3
			c1.8-5.5,7.7-8.5,13.2-6.7c5.5,1.8,8.5,7.7,6.7,13.3c-1.3,4-7.2,11.6-12.2,15l-1.7,1.1l15.2,3L226.8,142.9z M218.5,127.4
			c3.2-3.4,5.3-6.8,5.9-8.5c1.3-4-1-8.4-5.1-9.8c-4.1-1.4-8.6,0.8-9.9,4.8c-0.6,1.7-0.9,5.7-0.4,10.4c0.5,4.3,1.6,6.9,2.3,7.8
			l0.3,0.3l0.4-0.1C213.2,132.1,215.6,130.6,218.5,127.4z M212.1,130.8c-0.6-1.1-1.3-3.4-1.7-6.7c-0.5-4.5-0.2-8.2,0.3-9.8
			c1.1-3.3,4.7-5,8.2-3.9c3.4,1.1,5.3,4.7,4.3,8c-0.5,1.6-2.5,4.7-5.6,8C214.7,129.4,212.9,130.5,212.1,130.8z M219.3,109.2
			c-4.1-1.4-8.6,0.8-9.9,4.8c-0.6,1.7-0.9,5.7-0.4,10.4c0.5,4.3,1.6,6.9,2.3,7.8l0.3,0.3l0.4-0.1c1.1-0.3,3.5-1.8,6.5-4.9
			c3.2-3.4,5.3-6.8,5.9-8.5C225.7,114.9,223.4,110.5,219.3,109.2z M223.1,118.5c-0.5,1.6-2.5,4.7-5.6,8c-2.8,2.9-4.6,4-5.4,4.3
			c-0.6-1.1-1.3-3.4-1.7-6.7c-0.5-4.5-0.2-8.2,0.3-9.8c1.1-3.3,4.7-5,8.2-3.9C222.3,111.6,224.2,115.2,223.1,118.5z M219.3,109.2
			c-4.1-1.4-8.6,0.8-9.9,4.8c-0.6,1.7-0.9,5.7-0.4,10.4c0.5,4.3,1.6,6.9,2.3,7.8l0.3,0.3l0.4-0.1c1.1-0.3,3.5-1.8,6.5-4.9
			c3.2-3.4,5.3-6.8,5.9-8.5C225.7,114.9,223.4,110.5,219.3,109.2z M223.1,118.5c-0.5,1.6-2.5,4.7-5.6,8c-2.8,2.9-4.6,4-5.4,4.3
			c-0.6-1.1-1.3-3.4-1.7-6.7c-0.5-4.5-0.2-8.2,0.3-9.8c1.1-3.3,4.7-5,8.2-3.9C222.3,111.6,224.2,115.2,223.1,118.5z M219.3,109.2
			c-4.1-1.4-8.6,0.8-9.9,4.8c-0.6,1.7-0.9,5.7-0.4,10.4c0.5,4.3,1.6,6.9,2.3,7.8l0.3,0.3l0.4-0.1c1.1-0.3,3.5-1.8,6.5-4.9
			c3.2-3.4,5.3-6.8,5.9-8.5C225.7,114.9,223.4,110.5,219.3,109.2z M223.1,118.5c-0.5,1.6-2.5,4.7-5.6,8c-2.8,2.9-4.6,4-5.4,4.3
			c-0.6-1.1-1.3-3.4-1.7-6.7c-0.5-4.5-0.2-8.2,0.3-9.8c1.1-3.3,4.7-5,8.2-3.9C222.3,111.6,224.2,115.2,223.1,118.5z"/>
	</g>
	<g>
		<path class="st0" d="M302.6,118.9c-0.6-4.7-1.9-8.4-2.9-9.9c-2.3-3.6-7.1-4.6-10.8-2.2c-3.7,2.3-4.9,7.1-2.6,10.7
			c1,1.5,3.8,4.3,7.8,6.8c3.6,2.3,6.3,3.1,7.5,3.1h0.5l0.2-0.4C302.7,126,303.1,123.2,302.6,118.9z M301.1,126
			c-1.2-0.2-3.4-1.1-6.3-2.9c-3.8-2.4-6.5-5-7.4-6.4c-1.9-2.9-0.9-6.9,2.2-8.8c3-1.9,7-1.1,8.9,1.8c0.9,1.4,2.1,4.9,2.7,9.4
			C301.7,123.1,301.4,125.2,301.1,126z M302.6,118.9c-0.6-4.7-1.9-8.4-2.9-9.9c-2.3-3.6-7.1-4.6-10.8-2.2c-3.7,2.3-4.9,7.1-2.6,10.7
			c1,1.5,3.8,4.3,7.8,6.8c3.6,2.3,6.3,3.1,7.5,3.1h0.5l0.2-0.4C302.7,126,303.1,123.2,302.6,118.9z M301.1,126
			c-1.2-0.2-3.4-1.1-6.3-2.9c-3.8-2.4-6.5-5-7.4-6.4c-1.9-2.9-0.9-6.9,2.2-8.8c3-1.9,7-1.1,8.9,1.8c0.9,1.4,2.1,4.9,2.7,9.4
			C301.7,123.1,301.4,125.2,301.1,126z M302.6,118.9c-0.6-4.7-1.9-8.4-2.9-9.9c-2.3-3.6-7.1-4.6-10.8-2.2c-3.7,2.3-4.9,7.1-2.6,10.7
			c1,1.5,3.8,4.3,7.8,6.8c3.6,2.3,6.3,3.1,7.5,3.1h0.5l0.2-0.4C302.7,126,303.1,123.2,302.6,118.9z M301.1,126
			c-1.2-0.2-3.4-1.1-6.3-2.9c-3.8-2.4-6.5-5-7.4-6.4c-1.9-2.9-0.9-6.9,2.2-8.8c3-1.9,7-1.1,8.9,1.8c0.9,1.4,2.1,4.9,2.7,9.4
			C301.7,123.1,301.4,125.2,301.1,126z M302.6,118.9c-0.6-4.7-1.9-8.4-2.9-9.9c-2.3-3.6-7.1-4.6-10.8-2.2c-3.7,2.3-4.9,7.1-2.6,10.7
			c1,1.5,3.8,4.3,7.8,6.8c3.6,2.3,6.3,3.1,7.5,3.1h0.5l0.2-0.4C302.7,126,303.1,123.2,302.6,118.9z M301.1,126
			c-1.2-0.2-3.4-1.1-6.3-2.9c-3.8-2.4-6.5-5-7.4-6.4c-1.9-2.9-0.9-6.9,2.2-8.8c3-1.9,7-1.1,8.9,1.8c0.9,1.4,2.1,4.9,2.7,9.4
			C301.7,123.1,301.4,125.2,301.1,126z M302.6,118.9c-0.6-4.7-1.9-8.4-2.9-9.9c-2.3-3.6-7.1-4.6-10.8-2.2c-3.7,2.3-4.9,7.1-2.6,10.7
			c1,1.5,3.8,4.3,7.8,6.8c3.6,2.3,6.3,3.1,7.5,3.1h0.5l0.2-0.4C302.7,126,303.1,123.2,302.6,118.9z M301.1,126
			c-1.2-0.2-3.4-1.1-6.3-2.9c-3.8-2.4-6.5-5-7.4-6.4c-1.9-2.9-0.9-6.9,2.2-8.8c3-1.9,7-1.1,8.9,1.8c0.9,1.4,2.1,4.9,2.7,9.4
			C301.7,123.1,301.4,125.2,301.1,126z M306.9,130.5l14.9-7.6l-4.5-7.1l-10.6,8.7c0.2-6-1.7-14.7-4.1-18.5
			c-3.5-5.5-10.9-7.2-16.4-3.7s-7.2,10.9-3.7,16.4c2.2,3.5,9,9.1,15,11.6l-13,6.2l4.5,7.1l13.8-10.7l16.4,30l7.8-5L306.9,130.5z
			 M303.3,131.1l-0.1-0.1l-13.8,10.7l-2.9-4.5l14.6-7l-1.9-0.7c-5.6-1.9-13.2-8-15.5-11.5c-3.1-4.9-1.7-11.4,3.2-14.5
			c4.9-3.1,11.4-1.7,14.5,3.2c2.3,3.5,4.5,13,3.8,18.9l-0.2,2l11.9-9.8l2.8,4.5l-15,7.6l20.2,27.7l-5.3,3.4L303.3,131.1z M299.7,109
			c-2.3-3.6-7.1-4.6-10.8-2.2c-3.7,2.3-4.9,7.1-2.6,10.7c1,1.5,3.8,4.3,7.8,6.8c3.6,2.3,6.3,3.1,7.5,3.1h0.5l0.2-0.4
			c0.5-1.1,0.9-3.9,0.3-8.1C302,114.3,300.7,110.5,299.7,109z M301.1,126c-1.2-0.2-3.4-1.1-6.3-2.9c-3.8-2.4-6.5-5-7.4-6.4
			c-1.9-2.9-0.9-6.9,2.2-8.8c3-1.9,7-1.1,8.9,1.8c0.9,1.4,2.1,4.9,2.7,9.4C301.7,123.1,301.4,125.2,301.1,126z M302.6,118.9
			c-0.6-4.7-1.9-8.4-2.9-9.9c-2.3-3.6-7.1-4.6-10.8-2.2c-3.7,2.3-4.9,7.1-2.6,10.7c1,1.5,3.8,4.3,7.8,6.8c3.6,2.3,6.3,3.1,7.5,3.1
			h0.5l0.2-0.4C302.7,126,303.1,123.2,302.6,118.9z M301.1,126c-1.2-0.2-3.4-1.1-6.3-2.9c-3.8-2.4-6.5-5-7.4-6.4
			c-1.9-2.9-0.9-6.9,2.2-8.8c3-1.9,7-1.1,8.9,1.8c0.9,1.4,2.1,4.9,2.7,9.4C301.7,123.1,301.4,125.2,301.1,126z M302.6,118.9
			c-0.6-4.7-1.9-8.4-2.9-9.9c-2.3-3.6-7.1-4.6-10.8-2.2c-3.7,2.3-4.9,7.1-2.6,10.7c1,1.5,3.8,4.3,7.8,6.8c3.6,2.3,6.3,3.1,7.5,3.1
			h0.5l0.2-0.4C302.7,126,303.1,123.2,302.6,118.9z M301.1,126c-1.2-0.2-3.4-1.1-6.3-2.9c-3.8-2.4-6.5-5-7.4-6.4
			c-1.9-2.9-0.9-6.9,2.2-8.8c3-1.9,7-1.1,8.9,1.8c0.9,1.4,2.1,4.9,2.7,9.4C301.7,123.1,301.4,125.2,301.1,126z M302.6,118.9
			c-0.6-4.7-1.9-8.4-2.9-9.9c-2.3-3.6-7.1-4.6-10.8-2.2c-3.7,2.3-4.9,7.1-2.6,10.7c1,1.5,3.8,4.3,7.8,6.8c3.6,2.3,6.3,3.1,7.5,3.1
			h0.5l0.2-0.4C302.7,126,303.1,123.2,302.6,118.9z M301.1,126c-1.2-0.2-3.4-1.1-6.3-2.9c-3.8-2.4-6.5-5-7.4-6.4
			c-1.9-2.9-0.9-6.9,2.2-8.8c3-1.9,7-1.1,8.9,1.8c0.9,1.4,2.1,4.9,2.7,9.4C301.7,123.1,301.4,125.2,301.1,126z"/>
	</g>
</g>
<path class="st1" d="M300.2,220.8v7.5H197.1c-1.8,0-3.5-0.8-4.8-2.1l-7.4-7.9l-1.7-1.9l-2.2-2.3l-2.5-2.6l-1.4-1.5l-2.2-2.4
	l-14.3-15.2l-0.9-0.9l-0.5-0.5l-18.1-19.4l-18.6,19.9L90,226.2c-1.2,1.3-3,2.1-4.8,2.1H6.6c-2.3,0-5.8-7.9-4.2-9.6L28,191.4
	l86.7-92.5c1.3-1.4,3.2-2.3,5.2-2.3c0,0,0,0,0,0c2,0,3.9,0.9,5.2,2.3l51.6,56.1l1.1,1.2l5,5.4l1.1,1.3l17.6,19.2l1.4,1.5l5.3,5.7
	l0.7,0.7l0.9,0.9l0.1,0.2l0.2,0.2l0.4,0.4l0.7,0.7l5.1,5.2l1.3,1.3l1.7,1.7l1.6,1.6l3.3,3.4l1.7,1.7l4.9,5l0.2,0.2l-5.9,1.5
	l-2.6,0.7l-0.7-0.7l-1.7-1.7l-0.6-0.6l-1.6-1.7l-0.1-0.1l-1.9-1.9l-3.2-3.3l-1.3-1.4l-0.4-0.5l-2-2.1l-7.6-7.8l-1.3-1.4l-0.1-0.1
	l-0.3-0.3l-1.2-1.3l-3.5-3.8l-1.3-1.5l-1.7-1.9l-2-2.2l-11-12l-1.9-2.1L120,104.3l-81.6,87l-27.6,29.5h74.1l27.5-29.5L136,166
	c2.7-2.9,7.7-2.9,10.4,0l9.6,10.3l1.7,1.9l4.3,4.6l1.6,1.7l6.4,6.9l4.3,4.5l1.7,1.9l13.6,14.6l1.6,1.7l1.4,1.5l1.5,1.6l3.4,3.6
	L300.2,220.8L300.2,220.8z"/>
<g>
	<path class="st2" d="M144.6,65.7l-9.2,13.2h47.2l-26.4,41h16.1l34.6-53.9l0.2-0.2H144.6z M172.1,119.6h-15.4l26.4-41H136l8.8-12.6
		h61.7L172.1,119.6z"/>
	<path class="st2" d="M144.1,64.8l-10.5,15h47.3l-26.4,41h18.3l35.9-56H144.1z M158.4,118.7l26.4-41h-47.1l7.5-10.8h59.5l-33.2,51.7
		C171.6,118.7,158.4,118.7,158.4,118.7z"/>
</g>
<g>
	<path class="st1" d="M179.6,45.6l26.3-40.8l1.1-1.9h-16l-35.7,55.6l-0.1,0.2h72.3l9.2-13.2C236.7,45.6,179.6,45.6,179.6,45.6z
		 M227.2,58.5h-71.6l33.6-52.4l1.9-2.9h15.3l-0.9,1.5L179,45.9h57L227.2,58.5z"/>
	<path class="st1" d="M181.2,44.7l25.4-39.4l2-3.3h-18.1l-37,57.7h74.4l10.5-15C238.4,44.7,181.2,44.7,181.2,44.7z M157.3,57.6
		l34.3-53.5h13.2l-27.5,42.7h57l-7.5,10.7H157.3z"/>
</g>
</svg>
