<?xml version="1.0" encoding="utf-8"?>
<!-- Generator: Adobe Illustrator 27.8.1, SVG Export Plug-In . SVG Version: 6.00 Build 0)  -->
<svg version="1.1" id="Layer_1" xmlns="http://www.w3.org/2000/svg" xmlns:xlink="http://www.w3.org/1999/xlink" x="0px" y="0px"
	 viewBox="0 0 416.9 117.9" style="enable-background:new 0 0 416.9 117.9;" xml:space="preserve">
<style type="text/css">
	.st0{fill:#EC5238;}
	.st1{fill:#223972;}
</style>
<g>
	<polygon class="st0" points="133.6,2.9 81.8,84.4 58.1,84.4 97.8,22.4 26.9,22.4 40.4,2.9 	"/>
	<polygon class="st1" points="122.8,92.2 109.2,111.7 1.2,111.7 51.9,32.1 53.1,30.2 54.7,27.6 78.3,27.6 76.7,30.2 37.1,92.2 	"/>
	<g>
		<path class="st1" d="M185.2,59.3H143v-11l26.4-32.5h-25.6V5h40.7v11l-26.4,32.5h27.1L185.2,59.3L185.2,59.3z"/>
		<path class="st1" d="M198.5,32.1c0-7.7,2.7-14.4,8.2-19.9c5.5-5.5,12.1-8.3,19.9-8.3c7.8,0,14.4,2.8,19.9,8.3
			c5.5,5.5,8.2,12.1,8.2,19.9c0,7.8-2.7,14.5-8.2,20c-5.5,5.6-12.2,8.3-20,8.3c-7.8,0-14.4-2.8-19.9-8.3
			C201.3,46.6,198.5,40,198.5,32.1z M214.8,44.1c3.3,3.3,7.2,4.9,11.8,4.9c4.6,0,8.6-1.6,11.8-4.9c3.2-3.3,4.9-7.3,4.9-11.9
			c0-4.6-1.6-8.6-4.9-11.8c-3.3-3.3-7.2-4.9-11.8-4.9s-8.5,1.6-11.8,4.9s-4.9,7.2-4.9,11.8C209.9,36.8,211.5,40.8,214.8,44.1z"/>
		<path class="st1" d="M268.2,51.6l6.9-7.1c3.9,3.8,8.3,5.7,13,5.7c2.5,0,4.6-0.6,6.1-1.6c1.5-1.1,2.3-2.6,2.3-4.5
			c0-1.4-0.5-2.6-1.5-3.6c-1-1-2.3-1.8-3.9-2.5c-1.6-0.7-3.4-1.3-5.3-1.9c-1.9-0.6-3.8-1.4-5.8-2.2c-1.9-0.9-3.7-1.9-5.3-3
			c-1.6-1.2-2.9-2.7-3.9-4.7c-1-2-1.5-4.2-1.5-6.8c0-4.6,1.7-8.3,4.9-11.1S282,4,287.6,4c3.3,0,6.6,0.7,9.9,2.2
			c3.3,1.4,6.1,3.7,8.4,6.6l-7.8,6.2c-1.2-1.5-2.7-2.7-4.5-3.5c-1.9-0.9-3.8-1.3-5.7-1.4c-2.3,0-4.2,0.5-5.7,1.5
			c-1.4,1-2.2,2.2-2.2,3.7c0,1.4,0.7,2.6,2,3.6c1.3,1,3,1.8,5,2.4c2,0.6,4.2,1.3,6.6,2.3c2.4,0.9,4.5,1.9,6.6,3.1c2,1.1,3.7,2.8,5,5
			c1.3,2.2,2,4.8,2,7.9c0,5.1-1.7,9.2-5.2,12.2c-3.5,3.1-8,4.7-13.7,4.7c-0.1,0-0.2,0-0.3,0C280.1,60.4,273.4,57.5,268.2,51.6z"/>
		<path class="st1" d="M322.9,5h34.3v10.2H334v11.3h21.7v10.1H334v12.1h24v10.7h-35.1L322.9,5L322.9,5z"/>
		<path class="st1" d="M394.6,5c5.8,0,10.4,1.7,13.9,5.1c3.5,3.4,5.3,7.6,5.3,12.6c0,3.6-1,6.8-2.9,9.6c-1.9,2.8-4.5,4.9-7.8,6
			l11.7,21h-12.7L392,40.6h-7.2v18.8h-11.2V5H394.6z M394.2,29.6c2.5,0,4.4-0.6,5.9-2c1.4-1.3,2.2-3,2.2-4.9c0-1.9-0.7-3.6-2.2-4.9
			s-3.4-2-5.8-2h-9.5v13.8L394.2,29.6L394.2,29.6z"/>
	</g>
	<g>
		<path class="st1" d="M159.4,113.4h-18V85.2h3.1v25.1h14.9L159.4,113.4L159.4,113.4z"/>
		<path class="st1" d="M175.9,89c2.8-2.8,6.2-4.2,10.2-4.2c4,0,7.4,1.4,10.2,4.2c2.8,2.8,4.2,6.2,4.2,10.2c0,4-1.4,7.4-4.2,10.2
			c-2.8,2.9-6.2,4.3-10.2,4.3c-4,0-7.4-1.4-10.2-4.3s-4.2-6.2-4.2-10.2C171.7,95.3,173,91.9,175.9,89z M174.8,99.2
			c0,3.2,1.1,5.8,3.3,8.1c2.2,2.2,4.9,3.3,8,3.3c3.1,0,5.8-1.1,8-3.3c2.2-2.2,3.3-4.9,3.3-8.1c0-3.1-1.1-5.8-3.3-8s-4.9-3.3-8-3.3
			c-3.1,0-5.8,1.1-8,3.3C175.9,93.5,174.8,96.1,174.8,99.2z"/>
		<path class="st1" d="M218.1,89c2.8-2.8,6.2-4.2,10.2-4.2c2.3,0,4.4,0.5,6.4,1.5s3.7,2.4,5,4.1l-2.7,1.7c-1.1-1.3-2.4-2.3-3.9-3.1
			c-1.5-0.7-3.1-1.1-4.9-1.1c-3.1,0-5.8,1.1-8,3.3c-2.2,2.2-3.3,4.9-3.3,8c0,3.2,1.1,5.8,3.3,8.1c2.2,2.2,4.9,3.3,8,3.3
			c3.1,0,5.5-0.9,7.5-2.8c1.9-1.9,3-4.3,3.1-7.3h-11.4v-2.9h14.7c0.1,0.5,0.1,1.1,0.1,1.7c0,4.3-1.3,7.8-3.9,10.4
			c-2.6,2.7-6,4.1-10.1,4.1c-4,0-7.4-1.4-10.2-4.3c-2.8-2.8-4.2-6.2-4.2-10.2C213.8,95.3,215.2,91.9,218.1,89z"/>
		<path class="st1" d="M260,113.4H257V85.2h3.1V113.4z"/>
		<path class="st1" d="M274.6,109.3l2-2c2.3,2.3,5,3.5,8.1,3.5c0,0,0.1,0,0.1,0c1.8,0,3.4-0.5,4.6-1.3c1.2-0.9,1.8-2.1,1.8-3.7
			c0-1-0.3-1.9-0.9-2.7s-1.4-1.3-2.3-1.8c-1-0.4-2-0.8-3.1-1.2c-1.2-0.4-2.3-0.8-3.5-1.2c-1.2-0.4-2.2-0.9-3.2-1.4
			c-1-0.6-1.7-1.3-2.3-2.3c-0.6-1-0.9-2.1-0.9-3.4c0-2,0.8-3.7,2.4-5c1.6-1.3,3.8-2,6.7-2c1.7,0,3.4,0.4,5,1.1
			c1.7,0.7,3.1,1.9,4.3,3.4l-2.2,1.7c-0.7-1-1.8-1.8-3-2.4c-1.3-0.6-2.6-0.9-3.9-0.9c-1.9,0-3.4,0.4-4.5,1.2c-1.2,0.8-1.7,1.8-1.7,3
			c0,0.9,0.3,1.7,0.9,2.4c0.6,0.6,1.4,1.2,2.3,1.6c1,0.4,2,0.8,3.1,1.1c1.2,0.3,2.3,0.7,3.5,1.2c1.2,0.4,2.2,1,3.2,1.5
			c1,0.6,1.7,1.4,2.3,2.4c0.6,1,0.9,2.2,0.9,3.6c0,2.5-0.9,4.4-2.7,5.9c-1.8,1.4-4,2.2-6.8,2.2c0,0-0.1,0-0.1,0
			C280.7,113.7,277.3,112.2,274.6,109.3z"/>
		<path class="st1" d="M306.3,85.2h21v3h-8.9v25.2h-3.1V88.2h-9L306.3,85.2L306.3,85.2z"/>
		<path class="st1" d="M344,113.4h-3.1V85.2h3.1V113.4z"/>
		<path class="st1" d="M362.9,89c2.8-2.8,6.2-4.2,10.2-4.2c2.2,0,4.3,0.5,6.3,1.5c2,1,3.7,2.3,5,4l-2.5,1.9c-1-1.3-2.3-2.4-3.9-3.1
			c-1.5-0.8-3.2-1.1-4.9-1.1c-3.1,0-5.8,1.1-8,3.3c-2.2,2.2-3.3,4.9-3.3,8c0,3.2,1.1,5.8,3.3,8.1c2.2,2.2,4.9,3.3,8,3.3
			c1.8,0,3.5-0.4,5-1.2c1.6-0.8,2.9-1.9,3.9-3.3l2.7,1.7c-1.3,1.8-3,3.3-5,4.3c-2,1.1-4.2,1.6-6.6,1.6c-4,0-7.4-1.4-10.2-4.3
			c-2.8-2.8-4.2-6.2-4.2-10.2C358.7,95.3,360.1,91.9,362.9,89z"/>
		<path class="st1" d="M397.2,109.3l2-2c2.3,2.3,5,3.5,8.1,3.5c0,0,0.1,0,0.1,0c1.8,0,3.4-0.5,4.6-1.3s1.8-2.1,1.8-3.7
			c0-1-0.3-1.9-0.9-2.7s-1.4-1.3-2.3-1.8c-1-0.4-2-0.8-3.1-1.2s-2.3-0.8-3.5-1.2c-1.2-0.4-2.2-0.9-3.2-1.4c-1-0.6-1.7-1.3-2.3-2.3
			c-0.6-1-0.9-2.1-0.9-3.4c0-2,0.8-3.7,2.4-5c1.6-1.3,3.8-2,6.7-2c1.7,0,3.4,0.4,5,1.1c1.7,0.7,3.1,1.9,4.3,3.4l-2.2,1.7
			c-0.7-1-1.8-1.8-3-2.4s-2.6-0.9-3.9-0.9c-1.9,0-3.4,0.4-4.5,1.2c-1.2,0.8-1.7,1.8-1.7,3c0,0.9,0.3,1.7,0.9,2.4
			c0.6,0.6,1.4,1.2,2.3,1.6c1,0.4,2,0.8,3.1,1.1c1.2,0.3,2.3,0.7,3.5,1.2c1.2,0.4,2.2,1,3.2,1.5c1,0.6,1.7,1.4,2.3,2.4
			c0.6,1,0.9,2.2,0.9,3.6c0,2.5-0.9,4.4-2.7,5.9c-1.8,1.4-4,2.2-6.8,2.2c0,0-0.1,0-0.1,0C403.3,113.7,400,112.2,397.2,109.3z"/>
	</g>
</g>
</svg>
